{
	"asset":{
		"generator":"Khronos glTF Blender I/O v4.2.83",
		"version":"2.0"
	},
	"scene":0,
	"scenes":[
		{
			"name":"Scene",
			"nodes":[
				0,
				1,
				2,
				3,
				4,
				5,
				6,
				7,
				8,
				9,
				10,
				11,
				12,
				13,
				14,
				15,
				16,
				17,
				18,
				19,
				20,
				21,
				22
			]
		}
	],
	"nodes":[
		{
			"mesh":0,
			"name":"gutters.000",
			"translation":[
				3.5277507305145264,
				-0.049999237060546875,
				2.1823487281799316
			]
		},
		{
			"mesh":1,
			"name":"cover_roof.003",
			"translation":[
				3.5277504920959473,
				-0.049999237060546875,
				2.1823489665985107
			]
		},
		{
			"mesh":2,
			"name":"chimney.005",
			"translation":[
				3.5277509689331055,
				-0.049999237060546875,
				2.1823489665985107
			]
		},
		{
			"mesh":3,
			"name":"gutters.002",
			"translation":[
				3.5277507305145264,
				-0.04999971389770508,
				2.1823487281799316
			]
		},
		{
			"mesh":4,
			"name":"window_front",
			"translation":[
				3.5277507305145264,
				-0.049999237060546875,
				2.1823487281799316
			]
		},
		{
			"mesh":5,
			"name":"window.039",
			"translation":[
				3.5277504920959473,
				-0.04999959468841553,
				2.1823487281799316
			]
		},
		{
			"mesh":6,
			"name":"barrels",
			"translation":[
				3.5277507305145264,
				-0.04999971389770508,
				2.1823484897613525
			]
		},
		{
			"mesh":7,
			"name":"split_cover",
			"translation":[
				3.5277509689331055,
				-0.049999624490737915,
				2.1823482513427734
			]
		},
		{
			"mesh":8,
			"name":"balcony_cover",
			"translation":[
				3.5277512073516846,
				-0.04999971389770508,
				2.1823484897613525
			]
		},
		{
			"mesh":9,
			"name":"split",
			"translation":[
				3.5277507305145264,
				-0.04999959468841553,
				2.1823487281799316
			]
		},
		{
			"mesh":10,
			"name":"balcony",
			"translation":[
				3.5277504920959473,
				-0.04999971389770508,
				2.1823487281799316
			]
		},
		{
			"mesh":11,
			"name":"terrace",
			"translation":[
				3.5277507305145264,
				-0.049999624490737915,
				2.1823489665985107
			]
		},
		{
			"mesh":12,
			"name":"window.029",
			"translation":[
				3.5277507305145264,
				-0.049999237060546875,
				2.1823487281799316
			]
		},
		{
			"mesh":13,
			"name":"roof",
			"translation":[
				3.5277509689331055,
				-0.049999237060546875,
				2.1823489665985107
			]
		},
		{
			"mesh":14,
			"name":"wood_balls",
			"translation":[
				3.5277509689331055,
				-0.049999237060546875,
				2.18234920501709
			]
		},
		{
			"mesh":15,
			"name":"building",
			"translation":[
				3.5277504920959473,
				-0.04999971389770508,
				2.1823487281799316
			]
		},
		{
			"mesh":16,
			"name":"barrels_front",
			"translation":[
				3.5277507305145264,
				-0.04999947547912598,
				2.1823501586914062
			]
		},
		{
			"mesh":17,
			"name":"ground_grass",
			"translation":[
				3.5277504920959473,
				-0.04999962076544762,
				2.1823487281799316
			]
		},
		{
			"camera":0,
			"name":"camera_animation",
			"rotation":[
				4.0392071241512895e-05,
				0.3007136583328247,
				0,
				0.9537144899368286
			],
			"translation":[
				16.348896026611328,
				1.637166142463684,
				22.52977752685547
			]
		},
		{
			"mesh":18,
			"name":"grass.003"
		},
		{
			"mesh":19,
			"name":"grass"
		},
		{
			"mesh":20,
			"name":"grass.002"
		},
		{
			"mesh":21,
			"name":"grass.001"
		}
	],
	"cameras":[
		{
			"name":"Camera.001",
			"perspective":{
				"aspectRatio":1.7777777777777777,
				"yfov":0.8149313109412556,
				"zfar":100,
				"znear":0.10000000149011612
			},
			"type":"perspective"
		}
	],
	"animations":[
		{
			"channels":[
				{
					"sampler":0,
					"target":{
						"node":18,
						"path":"translation"
					}
				},
				{
					"sampler":1,
					"target":{
						"node":18,
						"path":"rotation"
					}
				}
			],
			"name":"CameraAction",
			"samplers":[
				{
					"input":163,
					"interpolation":"LINEAR",
					"output":164
				},
				{
					"input":163,
					"interpolation":"LINEAR",
					"output":165
				}
			]
		}
	],
	"materials":[
		{
			"doubleSided":true,
			"name":"metal_grey"
		},
		{
			"doubleSided":true,
			"name":"metal_red"
		},
		{
			"doubleSided":true,
			"name":"plaster_grey"
		},
		{
			"doubleSided":true,
			"name":"window_glass"
		},
		{
			"doubleSided":true,
			"name":"wood_brown"
		},
		{
			"doubleSided":true,
			"name":"curb"
		},
		{
			"doubleSided":true,
			"name":"wood_balls_brown"
		},
		{
			"doubleSided":true,
			"name":"brick"
		},
		{
			"doubleSided":true,
			"name":"parapet"
		},
		{
			"doubleSided":true,
			"name":"roof_titles_old"
		},
		{
			"doubleSided":true,
			"name":"plaster_white"
		},
		{
			"doubleSided":true,
			"name":"foundation_grey_brick"
		},
		{
			"doubleSided":true,
			"name":"grass_ground.001"
		},
		{
			"doubleSided":true,
			"name":"blade_03.001"
		},
		{
			"doubleSided":true,
			"name":"blade_02.001"
		},
		{
			"doubleSided":true,
			"name":"blade_01.001"
		}
	],
	"meshes":[
		{
			"name":"Circle.004",
			"primitives":[
				{
					"attributes":{
						"POSITION":0,
						"NORMAL":1,
						"TEXCOORD_0":2,
						"TANGENT":3
					},
					"indices":4,
					"material":0
				}
			]
		},
		{
			"name":"Circle.006",
			"primitives":[
				{
					"attributes":{
						"POSITION":5,
						"NORMAL":6,
						"TEXCOORD_0":7,
						"TANGENT":8
					},
					"indices":9,
					"material":1
				}
			]
		},
		{
			"name":"Cube.005",
			"primitives":[
				{
					"attributes":{
						"POSITION":10,
						"NORMAL":11,
						"TEXCOORD_0":12
					},
					"indices":13,
					"material":0
				},
				{
					"attributes":{
						"POSITION":14,
						"NORMAL":15,
						"TEXCOORD_0":16
					},
					"indices":17,
					"material":2
				}
			]
		},
		{
			"name":"Circle.001",
			"primitives":[
				{
					"attributes":{
						"POSITION":18,
						"NORMAL":19,
						"TEXCOORD_0":20,
						"TANGENT":21
					},
					"indices":22,
					"material":0
				}
			]
		},
		{
			"name":"Cube.002",
			"primitives":[
				{
					"attributes":{
						"POSITION":23,
						"NORMAL":24,
						"TEXCOORD_0":25,
						"TANGENT":26
					},
					"indices":27,
					"material":3
				},
				{
					"attributes":{
						"POSITION":28,
						"NORMAL":29,
						"TEXCOORD_0":30,
						"TANGENT":31
					},
					"indices":32,
					"material":0
				}
			]
		},
		{
			"name":"Cube.047",
			"primitives":[
				{
					"attributes":{
						"POSITION":33,
						"NORMAL":34,
						"TEXCOORD_0":35,
						"TANGENT":36
					},
					"indices":37,
					"material":4
				},
				{
					"attributes":{
						"POSITION":38,
						"NORMAL":39,
						"TEXCOORD_0":40,
						"TANGENT":41
					},
					"indices":42,
					"material":3
				},
				{
					"attributes":{
						"POSITION":43,
						"NORMAL":44,
						"TEXCOORD_0":45,
						"TANGENT":46
					},
					"indices":47,
					"material":0
				}
			]
		},
		{
			"name":"Cube.061",
			"primitives":[
				{
					"attributes":{
						"POSITION":48,
						"NORMAL":49,
						"TEXCOORD_0":50,
						"TANGENT":51
					},
					"indices":52,
					"material":0
				},
				{
					"attributes":{
						"POSITION":53,
						"NORMAL":54,
						"TEXCOORD_0":55,
						"TANGENT":56
					},
					"indices":57,
					"material":3
				}
			]
		},
		{
			"name":"Cube.046",
			"primitives":[
				{
					"attributes":{
						"POSITION":58,
						"NORMAL":59,
						"TEXCOORD_0":60,
						"TANGENT":61
					},
					"indices":62,
					"material":5
				}
			]
		},
		{
			"name":"Cube.045",
			"primitives":[
				{
					"attributes":{
						"POSITION":63,
						"NORMAL":64,
						"TEXCOORD_0":65,
						"TANGENT":66
					},
					"indices":67,
					"material":0
				}
			]
		},
		{
			"name":"Cube.044",
			"primitives":[
				{
					"attributes":{
						"POSITION":68,
						"NORMAL":69,
						"TEXCOORD_0":70,
						"TANGENT":71
					},
					"indices":72,
					"material":6
				}
			]
		},
		{
			"name":"Cube.043",
			"primitives":[
				{
					"attributes":{
						"POSITION":73,
						"NORMAL":74,
						"TEXCOORD_0":75,
						"TANGENT":76
					},
					"indices":77,
					"material":2
				}
			]
		},
		{
			"name":"Cube.007",
			"primitives":[
				{
					"attributes":{
						"POSITION":78,
						"NORMAL":79,
						"TEXCOORD_0":80,
						"TANGENT":81
					},
					"indices":82,
					"material":7
				},
				{
					"attributes":{
						"POSITION":83,
						"NORMAL":84,
						"TEXCOORD_0":85,
						"TANGENT":86
					},
					"indices":87,
					"material":5
				}
			]
		},
		{
			"name":"Cube.032",
			"primitives":[
				{
					"attributes":{
						"POSITION":88,
						"NORMAL":89,
						"TEXCOORD_0":90,
						"TANGENT":91
					},
					"indices":92,
					"material":4
				},
				{
					"attributes":{
						"POSITION":93,
						"NORMAL":94,
						"TEXCOORD_0":95,
						"TANGENT":96
					},
					"indices":97,
					"material":3
				},
				{
					"attributes":{
						"POSITION":98,
						"NORMAL":99,
						"TEXCOORD_0":100,
						"TANGENT":101
					},
					"indices":102,
					"material":0
				},
				{
					"attributes":{
						"POSITION":103,
						"NORMAL":104,
						"TEXCOORD_0":105,
						"TANGENT":106
					},
					"indices":107,
					"material":8
				}
			]
		},
		{
			"name":"Plane",
			"primitives":[
				{
					"attributes":{
						"POSITION":108,
						"NORMAL":109,
						"TEXCOORD_0":110,
						"TANGENT":111
					},
					"indices":112,
					"material":9
				}
			]
		},
		{
			"name":"Cube",
			"primitives":[
				{
					"attributes":{
						"POSITION":113,
						"NORMAL":114,
						"TEXCOORD_0":115,
						"TANGENT":116
					},
					"indices":117,
					"material":6
				},
				{
					"attributes":{
						"POSITION":118,
						"NORMAL":119,
						"TEXCOORD_0":120,
						"TANGENT":121
					},
					"indices":122,
					"material":4
				}
			]
		},
		{
			"name":"Plane.001",
			"primitives":[
				{
					"attributes":{
						"POSITION":123,
						"NORMAL":124,
						"TEXCOORD_0":125,
						"TANGENT":126
					},
					"indices":127,
					"material":10
				},
				{
					"attributes":{
						"POSITION":128,
						"NORMAL":129,
						"TEXCOORD_0":130,
						"TANGENT":131
					},
					"indices":132,
					"material":6
				},
				{
					"attributes":{
						"POSITION":133,
						"NORMAL":134,
						"TEXCOORD_0":135,
						"TANGENT":136
					},
					"indices":137,
					"material":11
				},
				{
					"attributes":{
						"POSITION":138,
						"NORMAL":139,
						"TEXCOORD_0":140,
						"TANGENT":141
					},
					"indices":142,
					"material":2
				}
			]
		},
		{
			"name":"Circle.000",
			"primitives":[
				{
					"attributes":{
						"POSITION":143,
						"NORMAL":144,
						"TEXCOORD_0":145,
						"TANGENT":146
					},
					"indices":147,
					"material":0
				}
			]
		},
		{
			"name":"Plane.002",
			"primitives":[
				{
					"attributes":{
						"POSITION":148,
						"NORMAL":149,
						"TEXCOORD_0":150,
						"TANGENT":151
					},
					"indices":152,
					"material":12
				}
			]
		},
		{
			"name":"Plane.000",
			"primitives":[
				{
					"attributes":{
						"POSITION":153,
						"NORMAL":154
					},
					"indices":155,
					"material":13
				}
			]
		},
		{
			"name":"Plane.051",
			"primitives":[
				{
					"attributes":{
						"POSITION":156,
						"NORMAL":157
					},
					"indices":158,
					"material":14
				}
			]
		},
		{
			"name":"Plane.050",
			"primitives":[
				{
					"attributes":{
						"POSITION":159,
						"NORMAL":160
					},
					"indices":158,
					"material":13
				}
			]
		},
		{
			"name":"Plane.049",
			"primitives":[
				{
					"attributes":{
						"POSITION":161,
						"NORMAL":162
					},
					"indices":158,
					"material":15
				}
			]
		}
	],
	"accessors":[
		{
			"bufferView":0,
			"componentType":5126,
			"count":206,
			"max":[
				8.779763221740723,
				9.053757667541504,
				9.068809509277344
			],
			"min":[
				-11.20023250579834,
				8.94999885559082,
				-6.661183834075928
			],
			"type":"VEC3"
		},
		{
			"bufferView":1,
			"componentType":5126,
			"count":206,
			"type":"VEC3"
		},
		{
			"bufferView":2,
			"componentType":5126,
			"count":206,
			"type":"VEC2"
		},
		{
			"bufferView":3,
			"componentType":5126,
			"count":206,
			"type":"VEC4"
		},
		{
			"bufferView":4,
			"componentType":5123,
			"count":432,
			"type":"SCALAR"
		},
		{
			"bufferView":5,
			"componentType":5126,
			"count":9898,
			"max":[
				8.729203224182129,
				11.422533988952637,
				9.015297889709473
			],
			"min":[
				-11.090373039245605,
				9.006211280822754,
				-6.604707717895508
			],
			"type":"VEC3"
		},
		{
			"bufferView":6,
			"componentType":5126,
			"count":9898,
			"type":"VEC3"
		},
		{
			"bufferView":7,
			"componentType":5126,
			"count":9898,
			"type":"VEC2"
		},
		{
			"bufferView":8,
			"componentType":5126,
			"count":9898,
			"type":"VEC4"
		},
		{
			"bufferView":9,
			"componentType":5123,
			"count":24192,
			"type":"SCALAR"
		},
		{
			"bufferView":10,
			"componentType":5126,
			"count":10938,
			"max":[
				4.114489555358887,
				11.933283805847168,
				2.5208075046539307
			],
			"min":[
				-6.556178092956543,
				10.323282241821289,
				-0.9431915283203125
			],
			"type":"VEC3"
		},
		{
			"bufferView":11,
			"componentType":5126,
			"count":10938,
			"type":"VEC3"
		},
		{
			"bufferView":12,
			"componentType":5126,
			"count":10938,
			"type":"VEC2"
		},
		{
			"bufferView":13,
			"componentType":5123,
			"count":18036,
			"type":"SCALAR"
		},
		{
			"bufferView":14,
			"componentType":5126,
			"count":400,
			"max":[
				4.2534894943237305,
				11.623283386230469,
				2.663808584213257
			],
			"min":[
				-6.695178031921387,
				10.296045303344727,
				-1.086191177368164
			],
			"type":"VEC3"
		},
		{
			"bufferView":15,
			"componentType":5126,
			"count":400,
			"type":"VEC3"
		},
		{
			"bufferView":16,
			"componentType":5126,
			"count":400,
			"type":"VEC2"
		},
		{
			"bufferView":17,
			"componentType":5123,
			"count":720,
			"type":"SCALAR"
		},
		{
			"bufferView":18,
			"componentType":5126,
			"count":3292,
			"max":[
				8.759825706481934,
				8.993332862854004,
				9.048858642578125
			],
			"min":[
				-11.180100440979004,
				0.023821353912353516,
				-4.822908878326416
			],
			"type":"VEC3"
		},
		{
			"bufferView":19,
			"componentType":5126,
			"count":3292,
			"type":"VEC3"
		},
		{
			"bufferView":20,
			"componentType":5126,
			"count":3292,
			"type":"VEC2"
		},
		{
			"bufferView":21,
			"componentType":5126,
			"count":3292,
			"type":"VEC4"
		},
		{
			"bufferView":22,
			"componentType":5123,
			"count":9180,
			"type":"SCALAR"
		},
		{
			"bufferView":23,
			"componentType":5126,
			"count":640,
			"max":[
				0.019762039184570312,
				8.210000991821289,
				7.333881378173828
			],
			"min":[
				-2.4202373027801514,
				2.8899986743927,
				7.3138813972473145
			],
			"type":"VEC3"
		},
		{
			"bufferView":24,
			"componentType":5126,
			"count":640,
			"type":"VEC3"
		},
		{
			"bufferView":25,
			"componentType":5126,
			"count":640,
			"type":"VEC2"
		},
		{
			"bufferView":26,
			"componentType":5126,
			"count":640,
			"type":"VEC4"
		},
		{
			"bufferView":27,
			"componentType":5123,
			"count":960,
			"type":"SCALAR"
		},
		{
			"bufferView":28,
			"componentType":5126,
			"count":92,
			"max":[
				0.03976130485534668,
				8.25,
				7.338809490203857
			],
			"min":[
				-2.440237522125244,
				2.849999189376831,
				7.29880952835083
			],
			"type":"VEC3"
		},
		{
			"bufferView":29,
			"componentType":5126,
			"count":92,
			"type":"VEC3"
		},
		{
			"bufferView":30,
			"componentType":5126,
			"count":92,
			"type":"VEC2"
		},
		{
			"bufferView":31,
			"componentType":5126,
			"count":92,
			"type":"VEC4"
		},
		{
			"bufferView":32,
			"componentType":5123,
			"count":144,
			"type":"SCALAR"
		},
		{
			"bufferView":33,
			"componentType":5126,
			"count":312,
			"max":[
				0.016181454062461853,
				2.549999713897705,
				6.1395487785339355
			],
			"min":[
				-2.390237331390381,
				0.3499997854232788,
				6.069548606872559
			],
			"type":"VEC3"
		},
		{
			"bufferView":34,
			"componentType":5126,
			"count":312,
			"type":"VEC3"
		},
		{
			"bufferView":35,
			"componentType":5126,
			"count":312,
			"type":"VEC2"
		},
		{
			"bufferView":36,
			"componentType":5126,
			"count":312,
			"type":"VEC4"
		},
		{
			"bufferView":37,
			"componentType":5123,
			"count":480,
			"type":"SCALAR"
		},
		{
			"bufferView":38,
			"componentType":5126,
			"count":72,
			"max":[
				-0.10381843149662018,
				2.4700002670288086,
				6.112548828125
			],
			"min":[
				-2.271057605743408,
				0.4299992322921753,
				6.09454870223999
			],
			"type":"VEC3"
		},
		{
			"bufferView":39,
			"componentType":5126,
			"count":72,
			"type":"VEC3"
		},
		{
			"bufferView":40,
			"componentType":5126,
			"count":72,
			"type":"VEC2"
		},
		{
			"bufferView":41,
			"componentType":5126,
			"count":72,
			"type":"VEC4"
		},
		{
			"bufferView":42,
			"componentType":5123,
			"count":108,
			"type":"SCALAR"
		},
		{
			"bufferView":43,
			"componentType":5126,
			"count":416,
			"max":[
				-0.03421832621097565,
				2.4572296142578125,
				6.181548595428467
			],
			"min":[
				-2.3406574726104736,
				0.46831023693084717,
				6.119548320770264
			],
			"type":"VEC3"
		},
		{
			"bufferView":44,
			"componentType":5126,
			"count":416,
			"type":"VEC3"
		},
		{
			"bufferView":45,
			"componentType":5126,
			"count":416,
			"type":"VEC2"
		},
		{
			"bufferView":46,
			"componentType":5126,
			"count":416,
			"type":"VEC4"
		},
		{
			"bufferView":47,
			"componentType":5123,
			"count":684,
			"type":"SCALAR"
		},
		{
			"bufferView":48,
			"componentType":5126,
			"count":1452,
			"max":[
				7.957510948181152,
				7.150001525878906,
				-4.396707534790039
			],
			"min":[
				-8.355722427368164,
				3.15000057220459,
				-7.3605804443359375
			],
			"type":"VEC3"
		},
		{
			"bufferView":49,
			"componentType":5126,
			"count":1452,
			"type":"VEC3"
		},
		{
			"bufferView":50,
			"componentType":5126,
			"count":1452,
			"type":"VEC2"
		},
		{
			"bufferView":51,
			"componentType":5126,
			"count":1452,
			"type":"VEC4"
		},
		{
			"bufferView":52,
			"componentType":5123,
			"count":2214,
			"type":"SCALAR"
		},
		{
			"bufferView":53,
			"componentType":5126,
			"count":228,
			"max":[
				7.939513206481934,
				6.990004539489746,
				-4.414706230163574
			],
			"min":[
				-8.337724685668945,
				3.2699999809265137,
				-7.342581748962402
			],
			"type":"VEC3"
		},
		{
			"bufferView":54,
			"componentType":5126,
			"count":228,
			"type":"VEC3"
		},
		{
			"bufferView":55,
			"componentType":5126,
			"count":228,
			"type":"VEC2"
		},
		{
			"bufferView":56,
			"componentType":5126,
			"count":228,
			"type":"VEC4"
		},
		{
			"bufferView":57,
			"componentType":5123,
			"count":342,
			"type":"SCALAR"
		},
		{
			"bufferView":58,
			"componentType":5126,
			"count":24,
			"max":[
				-2.4402379989624023,
				0.39999982714653015,
				9.408915519714355
			],
			"min":[
				-2.760237693786621,
				-5.662441253662109e-07,
				7.368809700012207
			],
			"type":"VEC3"
		},
		{
			"bufferView":59,
			"componentType":5126,
			"count":24,
			"type":"VEC3"
		},
		{
			"bufferView":60,
			"componentType":5126,
			"count":24,
			"type":"VEC2"
		},
		{
			"bufferView":61,
			"componentType":5126,
			"count":24,
			"type":"VEC4"
		},
		{
			"bufferView":62,
			"componentType":5123,
			"count":36,
			"type":"SCALAR"
		},
		{
			"bufferView":63,
			"componentType":5126,
			"count":248,
			"max":[
				7.8974409103393555,
				6.080000877380371,
				-4.446187973022461
			],
			"min":[
				-8.325725555419922,
				3.0300002098083496,
				-7.30058479309082
			],
			"type":"VEC3"
		},
		{
			"bufferView":64,
			"componentType":5126,
			"count":248,
			"type":"VEC3"
		},
		{
			"bufferView":65,
			"componentType":5126,
			"count":248,
			"type":"VEC2"
		},
		{
			"bufferView":66,
			"componentType":5126,
			"count":248,
			"type":"VEC4"
		},
		{
			"bufferView":67,
			"componentType":5123,
			"count":372,
			"type":"SCALAR"
		},
		{
			"bufferView":68,
			"componentType":5126,
			"count":40,
			"max":[
				1.989762306213379,
				2.3499996662139893,
				-6.161191463470459
			],
			"min":[
				-4.410238265991211,
				0.3499998450279236,
				-6.94119119644165
			],
			"type":"VEC3"
		},
		{
			"bufferView":69,
			"componentType":5126,
			"count":40,
			"type":"VEC3"
		},
		{
			"bufferView":70,
			"componentType":5126,
			"count":40,
			"type":"VEC2"
		},
		{
			"bufferView":71,
			"componentType":5126,
			"count":40,
			"type":"VEC4"
		},
		{
			"bufferView":72,
			"componentType":5123,
			"count":60,
			"type":"SCALAR"
		},
		{
			"bufferView":73,
			"componentType":5126,
			"count":377,
			"max":[
				7.862442493438721,
				7.15000057220459,
				-4.4811882972717285
			],
			"min":[
				-8.290725708007812,
				2.750000476837158,
				-7.265584945678711
			],
			"type":"VEC3"
		},
		{
			"bufferView":74,
			"componentType":5126,
			"count":377,
			"type":"VEC3"
		},
		{
			"bufferView":75,
			"componentType":5126,
			"count":377,
			"type":"VEC2"
		},
		{
			"bufferView":76,
			"componentType":5126,
			"count":377,
			"type":"VEC4"
		},
		{
			"bufferView":77,
			"componentType":5123,
			"count":678,
			"type":"SCALAR"
		},
		{
			"bufferView":78,
			"componentType":5126,
			"count":172,
			"max":[
				7.409761905670166,
				0.3499998152256012,
				11.472978591918945
			],
			"min":[
				-9.800239562988281,
				-5.662441253662109e-07,
				-8.441191673278809
			],
			"type":"VEC3"
		},
		{
			"bufferView":79,
			"componentType":5126,
			"count":172,
			"type":"VEC3"
		},
		{
			"bufferView":80,
			"componentType":5126,
			"count":172,
			"type":"VEC2"
		},
		{
			"bufferView":81,
			"componentType":5126,
			"count":172,
			"type":"VEC4"
		},
		{
			"bufferView":82,
			"componentType":5123,
			"count":282,
			"type":"SCALAR"
		},
		{
			"bufferView":83,
			"componentType":5126,
			"count":191,
			"max":[
				7.409761905670166,
				0.3499998152256012,
				11.472978591918945
			],
			"min":[
				-9.800239562988281,
				-5.662441253662109e-07,
				-8.441191673278809
			],
			"type":"VEC3"
		},
		{
			"bufferView":84,
			"componentType":5126,
			"count":191,
			"type":"VEC3"
		},
		{
			"bufferView":85,
			"componentType":5126,
			"count":191,
			"type":"VEC2"
		},
		{
			"bufferView":86,
			"componentType":5126,
			"count":191,
			"type":"VEC4"
		},
		{
			"bufferView":87,
			"componentType":5123,
			"count":306,
			"type":"SCALAR"
		},
		{
			"bufferView":88,
			"componentType":5126,
			"count":8196,
			"max":[
				6.9087653160095215,
				8.25,
				7.21835470199585
			],
			"min":[
				-9.367506980895996,
				0.34999942779541016,
				-5.991111755371094
			],
			"type":"VEC3"
		},
		{
			"bufferView":89,
			"componentType":5126,
			"count":8196,
			"type":"VEC3"
		},
		{
			"bufferView":90,
			"componentType":5126,
			"count":8196,
			"type":"VEC2"
		},
		{
			"bufferView":91,
			"componentType":5126,
			"count":8196,
			"type":"VEC4"
		},
		{
			"bufferView":92,
			"componentType":5123,
			"count":12600,
			"type":"SCALAR"
		},
		{
			"bufferView":93,
			"componentType":5126,
			"count":1224,
			"max":[
				6.868765830993652,
				8.130001068115234,
				7.178354740142822
			],
			"min":[
				-9.327507972717285,
				0.4699983596801758,
				-5.951111793518066
			],
			"type":"VEC3"
		},
		{
			"bufferView":94,
			"componentType":5126,
			"count":1224,
			"type":"VEC3"
		},
		{
			"bufferView":95,
			"componentType":5126,
			"count":1224,
			"type":"VEC2"
		},
		{
			"bufferView":96,
			"componentType":5126,
			"count":1224,
			"type":"VEC4"
		},
		{
			"bufferView":97,
			"componentType":5123,
			"count":1836,
			"type":"SCALAR"
		},
		{
			"bufferView":98,
			"componentType":5126,
			"count":10422,
			"max":[
				6.858765602111816,
				8.157230377197266,
				7.168354511260986
			],
			"min":[
				-9.31750774383545,
				0.4683103561401367,
				-5.9411115646362305
			],
			"type":"VEC3"
		},
		{
			"bufferView":99,
			"componentType":5126,
			"count":10422,
			"type":"VEC3"
		},
		{
			"bufferView":100,
			"componentType":5126,
			"count":10422,
			"type":"VEC2"
		},
		{
			"bufferView":101,
			"componentType":5126,
			"count":10422,
			"type":"VEC4"
		},
		{
			"bufferView":102,
			"componentType":5123,
			"count":16200,
			"type":"SCALAR"
		},
		{
			"bufferView":103,
			"componentType":5126,
			"count":720,
			"max":[
				7.093764305114746,
				6.979999542236328,
				7.403353214263916
			],
			"min":[
				-9.552506446838379,
				1.2499992847442627,
				-3.2361931800842285
			],
			"type":"VEC3"
		},
		{
			"bufferView":104,
			"componentType":5126,
			"count":720,
			"type":"VEC3"
		},
		{
			"bufferView":105,
			"componentType":5126,
			"count":720,
			"type":"VEC2"
		},
		{
			"bufferView":106,
			"componentType":5126,
			"count":720,
			"type":"VEC4"
		},
		{
			"bufferView":107,
			"componentType":5123,
			"count":1080,
			"type":"SCALAR"
		},
		{
			"bufferView":108,
			"componentType":5126,
			"count":14,
			"max":[
				8.579761505126953,
				11.34999942779541,
				8.86880874633789
			],
			"min":[
				-11.000237464904785,
				9.049999237060547,
				-6.461191177368164
			],
			"type":"VEC3"
		},
		{
			"bufferView":109,
			"componentType":5126,
			"count":14,
			"type":"VEC3"
		},
		{
			"bufferView":110,
			"componentType":5126,
			"count":14,
			"type":"VEC2"
		},
		{
			"bufferView":111,
			"componentType":5126,
			"count":14,
			"type":"VEC4"
		},
		{
			"bufferView":112,
			"componentType":5123,
			"count":18,
			"type":"SCALAR"
		},
		{
			"bufferView":113,
			"componentType":5126,
			"count":24,
			"max":[
				8.579764366149902,
				8.799999237060547,
				8.86880874633789
			],
			"min":[
				-11.00024127960205,
				8.799999237060547,
				-6.4611897468566895
			],
			"type":"VEC3"
		},
		{
			"bufferView":114,
			"componentType":5126,
			"count":24,
			"type":"VEC3"
		},
		{
			"bufferView":115,
			"componentType":5126,
			"count":24,
			"type":"VEC2"
		},
		{
			"bufferView":116,
			"componentType":5126,
			"count":24,
			"type":"VEC4"
		},
		{
			"bufferView":117,
			"componentType":5123,
			"count":36,
			"type":"SCALAR"
		},
		{
			"bufferView":118,
			"componentType":5126,
			"count":24,
			"max":[
				8.579764366149902,
				9.049999237060547,
				8.86880874633789
			],
			"min":[
				-11.00024127960205,
				8.799999237060547,
				-6.4611897468566895
			],
			"type":"VEC3"
		},
		{
			"bufferView":119,
			"componentType":5126,
			"count":24,
			"type":"VEC3"
		},
		{
			"bufferView":120,
			"componentType":5126,
			"count":24,
			"type":"VEC2"
		},
		{
			"bufferView":121,
			"componentType":5126,
			"count":24,
			"type":"VEC4"
		},
		{
			"bufferView":122,
			"componentType":5123,
			"count":36,
			"type":"SCALAR"
		},
		{
			"bufferView":123,
			"componentType":5126,
			"count":1482,
			"max":[
				7.949763774871826,
				6.950000762939453,
				7.368809223175049
			],
			"min":[
				-9.500238418579102,
				4.76837158203125e-07,
				-6.161191463470459
			],
			"type":"VEC3"
		},
		{
			"bufferView":124,
			"componentType":5126,
			"count":1482,
			"type":"VEC3"
		},
		{
			"bufferView":125,
			"componentType":5126,
			"count":1482,
			"type":"VEC2"
		},
		{
			"bufferView":126,
			"componentType":5126,
			"count":1482,
			"type":"VEC4"
		},
		{
			"bufferView":127,
			"componentType":5123,
			"count":2718,
			"type":"SCALAR"
		},
		{
			"bufferView":128,
			"componentType":5126,
			"count":578,
			"max":[
				7.079762935638428,
				8.80000114440918,
				7.368809223175049
			],
			"min":[
				-9.500238418579102,
				1.250000238418579,
				-6.161191463470459
			],
			"type":"VEC3"
		},
		{
			"bufferView":129,
			"componentType":5126,
			"count":578,
			"type":"VEC3"
		},
		{
			"bufferView":130,
			"componentType":5126,
			"count":578,
			"type":"VEC2"
		},
		{
			"bufferView":131,
			"componentType":5126,
			"count":578,
			"type":"VEC4"
		},
		{
			"bufferView":132,
			"componentType":5123,
			"count":888,
			"type":"SCALAR"
		},
		{
			"bufferView":133,
			"componentType":5126,
			"count":136,
			"max":[
				7.059762954711914,
				0.35000038146972656,
				7.348809719085693
			],
			"min":[
				-9.48023796081543,
				0,
				-6.141191005706787
			],
			"type":"VEC3"
		},
		{
			"bufferView":134,
			"componentType":5126,
			"count":136,
			"type":"VEC3"
		},
		{
			"bufferView":135,
			"componentType":5126,
			"count":136,
			"type":"VEC2"
		},
		{
			"bufferView":136,
			"componentType":5126,
			"count":136,
			"type":"VEC4"
		},
		{
			"bufferView":137,
			"componentType":5123,
			"count":204,
			"type":"SCALAR"
		},
		{
			"bufferView":138,
			"componentType":5126,
			"count":112,
			"max":[
				7.079762935638428,
				6.950000762939453,
				7.368809223175049
			],
			"min":[
				-9.500238418579102,
				0.35000014305114746,
				3.738809585571289
			],
			"type":"VEC3"
		},
		{
			"bufferView":139,
			"componentType":5126,
			"count":112,
			"type":"VEC3"
		},
		{
			"bufferView":140,
			"componentType":5126,
			"count":112,
			"type":"VEC2"
		},
		{
			"bufferView":141,
			"componentType":5126,
			"count":112,
			"type":"VEC4"
		},
		{
			"bufferView":142,
			"componentType":5123,
			"count":192,
			"type":"SCALAR"
		},
		{
			"bufferView":143,
			"componentType":5126,
			"count":2944,
			"max":[
				0.04511450603604317,
				1.477107048034668,
				11.711931228637695
			],
			"min":[
				-1.2169115543365479,
				-0.0037186145782470703,
				8.522788047790527
			],
			"type":"VEC3"
		},
		{
			"bufferView":144,
			"componentType":5126,
			"count":2944,
			"type":"VEC3"
		},
		{
			"bufferView":145,
			"componentType":5126,
			"count":2944,
			"type":"VEC2"
		},
		{
			"bufferView":146,
			"componentType":5126,
			"count":2944,
			"type":"VEC4"
		},
		{
			"bufferView":147,
			"componentType":5123,
			"count":4368,
			"type":"SCALAR"
		},
		{
			"bufferView":148,
			"componentType":5126,
			"count":4,
			"max":[
				50.35348892211914,
				3.8370490074157715e-07,
				48.977657318115234
			],
			"min":[
				-50.43887710571289,
				3.8370490074157715e-07,
				-51.82918930053711
			],
			"type":"VEC3"
		},
		{
			"bufferView":149,
			"componentType":5126,
			"count":4,
			"type":"VEC3"
		},
		{
			"bufferView":150,
			"componentType":5126,
			"count":4,
			"type":"VEC2"
		},
		{
			"bufferView":151,
			"componentType":5126,
			"count":4,
			"type":"VEC4"
		},
		{
			"bufferView":152,
			"componentType":5123,
			"count":6,
			"type":"SCALAR"
		},
		{
			"bufferView":153,
			"componentType":5126,
			"count":24,
			"max":[
				0.08256417512893677,
				0.9526733160018921,
				6.9966756832684496e-09
			],
			"min":[
				-0.08256418257951736,
				-1.095131516456604,
				-1.9421743154525757
			],
			"type":"VEC3"
		},
		{
			"bufferView":154,
			"componentType":5126,
			"count":24,
			"type":"VEC3"
		},
		{
			"bufferView":155,
			"componentType":5123,
			"count":54,
			"type":"SCALAR"
		},
		{
			"bufferView":156,
			"componentType":5126,
			"count":8,
			"max":[
				0.08256417512893677,
				0.4904748797416687,
				1.1920928955078125e-07
			],
			"min":[
				-0.08256417512893677,
				3.0547380447387695e-07,
				-1.971709966659546
			],
			"type":"VEC3"
		},
		{
			"bufferView":157,
			"componentType":5126,
			"count":8,
			"type":"VEC3"
		},
		{
			"bufferView":158,
			"componentType":5123,
			"count":18,
			"type":"SCALAR"
		},
		{
			"bufferView":159,
			"componentType":5126,
			"count":8,
			"max":[
				0.08256417512893677,
				0.9526733160018921,
				0
			],
			"min":[
				-0.08256418257951736,
				-4.470348358154297e-08,
				-1.6487504243850708
			],
			"type":"VEC3"
		},
		{
			"bufferView":160,
			"componentType":5126,
			"count":8,
			"type":"VEC3"
		},
		{
			"bufferView":161,
			"componentType":5126,
			"count":8,
			"max":[
				0.08256417512893677,
				0.3932584226131439,
				0
			],
			"min":[
				-0.08256417512893677,
				1.4901161193847656e-07,
				-2
			],
			"type":"VEC3"
		},
		{
			"bufferView":162,
			"componentType":5126,
			"count":8,
			"type":"VEC3"
		},
		{
			"bufferView":163,
			"componentType":5126,
			"count":4,
			"max":[
				0.16666666666666666
			],
			"min":[
				0.041666666666666664
			],
			"type":"SCALAR"
		},
		{
			"bufferView":164,
			"componentType":5126,
			"count":4,
			"type":"VEC3"
		},
		{
			"bufferView":165,
			"componentType":5126,
			"count":4,
			"type":"VEC4"
		}
	],
	"bufferViews":[
		{
			"buffer":0,
			"byteLength":2472,
			"byteOffset":0,
			"target":34962
		},
		{
			"buffer":0,
			"byteLength":2472,
			"byteOffset":2472,
			"target":34962
		},
		{
			"buffer":0,
			"byteLength":1648,
			"byteOffset":4944,
			"target":34962
		},
		{
			"buffer":0,
			"byteLength":3296,
			"byteOffset":6592,
			"target":34962
		},
		{
			"buffer":0,
			"byteLength":864,
			"byteOffset":9888,
			"target":34963
		},
		{
			"buffer":0,
			"byteLength":118776,
			"byteOffset":10752,
			"target":34962
		},
		{
			"buffer":0,
			"byteLength":118776,
			"byteOffset":129528,
			"target":34962
		},
		{
			"buffer":0,
			"byteLength":79184,
			"byteOffset":248304,
			"target":34962
		},
		{
			"buffer":0,
			"byteLength":158368,
			"byteOffset":327488,
			"target":34962
		},
		{
			"buffer":0,
			"byteLength":48384,
			"byteOffset":485856,
			"target":34963
		},
		{
			"buffer":0,
			"byteLength":131256,
			"byteOffset":534240,
			"target":34962
		},
		{
			"buffer":0,
			"byteLength":131256,
			"byteOffset":665496,
			"target":34962
		},
		{
			"buffer":0,
			"byteLength":87504,
			"byteOffset":796752,
			"target":34962
		},
		{
			"buffer":0,
			"byteLength":36072,
			"byteOffset":884256,
			"target":34963
		},
		{
			"buffer":0,
			"byteLength":4800,
			"byteOffset":920328,
			"target":34962
		},
		{
			"buffer":0,
			"byteLength":4800,
			"byteOffset":925128,
			"target":34962
		},
		{
			"buffer":0,
			"byteLength":3200,
			"byteOffset":929928,
			"target":34962
		},
		{
			"buffer":0,
			"byteLength":1440,
			"byteOffset":933128,
			"target":34963
		},
		{
			"buffer":0,
			"byteLength":39504,
			"byteOffset":934568,
			"target":34962
		},
		{
			"buffer":0,
			"byteLength":39504,
			"byteOffset":974072,
			"target":34962
		},
		{
			"buffer":0,
			"byteLength":26336,
			"byteOffset":1013576,
			"target":34962
		},
		{
			"buffer":0,
			"byteLength":52672,
			"byteOffset":1039912,
			"target":34962
		},
		{
			"buffer":0,
			"byteLength":18360,
			"byteOffset":1092584,
			"target":34963
		},
		{
			"buffer":0,
			"byteLength":7680,
			"byteOffset":1110944,
			"target":34962
		},
		{
			"buffer":0,
			"byteLength":7680,
			"byteOffset":1118624,
			"target":34962
		},
		{
			"buffer":0,
			"byteLength":5120,
			"byteOffset":1126304,
			"target":34962
		},
		{
			"buffer":0,
			"byteLength":10240,
			"byteOffset":1131424,
			"target":34962
		},
		{
			"buffer":0,
			"byteLength":1920,
			"byteOffset":1141664,
			"target":34963
		},
		{
			"buffer":0,
			"byteLength":1104,
			"byteOffset":1143584,
			"target":34962
		},
		{
			"buffer":0,
			"byteLength":1104,
			"byteOffset":1144688,
			"target":34962
		},
		{
			"buffer":0,
			"byteLength":736,
			"byteOffset":1145792,
			"target":34962
		},
		{
			"buffer":0,
			"byteLength":1472,
			"byteOffset":1146528,
			"target":34962
		},
		{
			"buffer":0,
			"byteLength":288,
			"byteOffset":1148000,
			"target":34963
		},
		{
			"buffer":0,
			"byteLength":3744,
			"byteOffset":1148288,
			"target":34962
		},
		{
			"buffer":0,
			"byteLength":3744,
			"byteOffset":1152032,
			"target":34962
		},
		{
			"buffer":0,
			"byteLength":2496,
			"byteOffset":1155776,
			"target":34962
		},
		{
			"buffer":0,
			"byteLength":4992,
			"byteOffset":1158272,
			"target":34962
		},
		{
			"buffer":0,
			"byteLength":960,
			"byteOffset":1163264,
			"target":34963
		},
		{
			"buffer":0,
			"byteLength":864,
			"byteOffset":1164224,
			"target":34962
		},
		{
			"buffer":0,
			"byteLength":864,
			"byteOffset":1165088,
			"target":34962
		},
		{
			"buffer":0,
			"byteLength":576,
			"byteOffset":1165952,
			"target":34962
		},
		{
			"buffer":0,
			"byteLength":1152,
			"byteOffset":1166528,
			"target":34962
		},
		{
			"buffer":0,
			"byteLength":216,
			"byteOffset":1167680,
			"target":34963
		},
		{
			"buffer":0,
			"byteLength":4992,
			"byteOffset":1167896,
			"target":34962
		},
		{
			"buffer":0,
			"byteLength":4992,
			"byteOffset":1172888,
			"target":34962
		},
		{
			"buffer":0,
			"byteLength":3328,
			"byteOffset":1177880,
			"target":34962
		},
		{
			"buffer":0,
			"byteLength":6656,
			"byteOffset":1181208,
			"target":34962
		},
		{
			"buffer":0,
			"byteLength":1368,
			"byteOffset":1187864,
			"target":34963
		},
		{
			"buffer":0,
			"byteLength":17424,
			"byteOffset":1189232,
			"target":34962
		},
		{
			"buffer":0,
			"byteLength":17424,
			"byteOffset":1206656,
			"target":34962
		},
		{
			"buffer":0,
			"byteLength":11616,
			"byteOffset":1224080,
			"target":34962
		},
		{
			"buffer":0,
			"byteLength":23232,
			"byteOffset":1235696,
			"target":34962
		},
		{
			"buffer":0,
			"byteLength":4428,
			"byteOffset":1258928,
			"target":34963
		},
		{
			"buffer":0,
			"byteLength":2736,
			"byteOffset":1263356,
			"target":34962
		},
		{
			"buffer":0,
			"byteLength":2736,
			"byteOffset":1266092,
			"target":34962
		},
		{
			"buffer":0,
			"byteLength":1824,
			"byteOffset":1268828,
			"target":34962
		},
		{
			"buffer":0,
			"byteLength":3648,
			"byteOffset":1270652,
			"target":34962
		},
		{
			"buffer":0,
			"byteLength":684,
			"byteOffset":1274300,
			"target":34963
		},
		{
			"buffer":0,
			"byteLength":288,
			"byteOffset":1274984,
			"target":34962
		},
		{
			"buffer":0,
			"byteLength":288,
			"byteOffset":1275272,
			"target":34962
		},
		{
			"buffer":0,
			"byteLength":192,
			"byteOffset":1275560,
			"target":34962
		},
		{
			"buffer":0,
			"byteLength":384,
			"byteOffset":1275752,
			"target":34962
		},
		{
			"buffer":0,
			"byteLength":72,
			"byteOffset":1276136,
			"target":34963
		},
		{
			"buffer":0,
			"byteLength":2976,
			"byteOffset":1276208,
			"target":34962
		},
		{
			"buffer":0,
			"byteLength":2976,
			"byteOffset":1279184,
			"target":34962
		},
		{
			"buffer":0,
			"byteLength":1984,
			"byteOffset":1282160,
			"target":34962
		},
		{
			"buffer":0,
			"byteLength":3968,
			"byteOffset":1284144,
			"target":34962
		},
		{
			"buffer":0,
			"byteLength":744,
			"byteOffset":1288112,
			"target":34963
		},
		{
			"buffer":0,
			"byteLength":480,
			"byteOffset":1288856,
			"target":34962
		},
		{
			"buffer":0,
			"byteLength":480,
			"byteOffset":1289336,
			"target":34962
		},
		{
			"buffer":0,
			"byteLength":320,
			"byteOffset":1289816,
			"target":34962
		},
		{
			"buffer":0,
			"byteLength":640,
			"byteOffset":1290136,
			"target":34962
		},
		{
			"buffer":0,
			"byteLength":120,
			"byteOffset":1290776,
			"target":34963
		},
		{
			"buffer":0,
			"byteLength":4524,
			"byteOffset":1290896,
			"target":34962
		},
		{
			"buffer":0,
			"byteLength":4524,
			"byteOffset":1295420,
			"target":34962
		},
		{
			"buffer":0,
			"byteLength":3016,
			"byteOffset":1299944,
			"target":34962
		},
		{
			"buffer":0,
			"byteLength":6032,
			"byteOffset":1302960,
			"target":34962
		},
		{
			"buffer":0,
			"byteLength":1356,
			"byteOffset":1308992,
			"target":34963
		},
		{
			"buffer":0,
			"byteLength":2064,
			"byteOffset":1310348,
			"target":34962
		},
		{
			"buffer":0,
			"byteLength":2064,
			"byteOffset":1312412,
			"target":34962
		},
		{
			"buffer":0,
			"byteLength":1376,
			"byteOffset":1314476,
			"target":34962
		},
		{
			"buffer":0,
			"byteLength":2752,
			"byteOffset":1315852,
			"target":34962
		},
		{
			"buffer":0,
			"byteLength":564,
			"byteOffset":1318604,
			"target":34963
		},
		{
			"buffer":0,
			"byteLength":2292,
			"byteOffset":1319168,
			"target":34962
		},
		{
			"buffer":0,
			"byteLength":2292,
			"byteOffset":1321460,
			"target":34962
		},
		{
			"buffer":0,
			"byteLength":1528,
			"byteOffset":1323752,
			"target":34962
		},
		{
			"buffer":0,
			"byteLength":3056,
			"byteOffset":1325280,
			"target":34962
		},
		{
			"buffer":0,
			"byteLength":612,
			"byteOffset":1328336,
			"target":34963
		},
		{
			"buffer":0,
			"byteLength":98352,
			"byteOffset":1328948,
			"target":34962
		},
		{
			"buffer":0,
			"byteLength":98352,
			"byteOffset":1427300,
			"target":34962
		},
		{
			"buffer":0,
			"byteLength":65568,
			"byteOffset":1525652,
			"target":34962
		},
		{
			"buffer":0,
			"byteLength":131136,
			"byteOffset":1591220,
			"target":34962
		},
		{
			"buffer":0,
			"byteLength":25200,
			"byteOffset":1722356,
			"target":34963
		},
		{
			"buffer":0,
			"byteLength":14688,
			"byteOffset":1747556,
			"target":34962
		},
		{
			"buffer":0,
			"byteLength":14688,
			"byteOffset":1762244,
			"target":34962
		},
		{
			"buffer":0,
			"byteLength":9792,
			"byteOffset":1776932,
			"target":34962
		},
		{
			"buffer":0,
			"byteLength":19584,
			"byteOffset":1786724,
			"target":34962
		},
		{
			"buffer":0,
			"byteLength":3672,
			"byteOffset":1806308,
			"target":34963
		},
		{
			"buffer":0,
			"byteLength":125064,
			"byteOffset":1809980,
			"target":34962
		},
		{
			"buffer":0,
			"byteLength":125064,
			"byteOffset":1935044,
			"target":34962
		},
		{
			"buffer":0,
			"byteLength":83376,
			"byteOffset":2060108,
			"target":34962
		},
		{
			"buffer":0,
			"byteLength":166752,
			"byteOffset":2143484,
			"target":34962
		},
		{
			"buffer":0,
			"byteLength":32400,
			"byteOffset":2310236,
			"target":34963
		},
		{
			"buffer":0,
			"byteLength":8640,
			"byteOffset":2342636,
			"target":34962
		},
		{
			"buffer":0,
			"byteLength":8640,
			"byteOffset":2351276,
			"target":34962
		},
		{
			"buffer":0,
			"byteLength":5760,
			"byteOffset":2359916,
			"target":34962
		},
		{
			"buffer":0,
			"byteLength":11520,
			"byteOffset":2365676,
			"target":34962
		},
		{
			"buffer":0,
			"byteLength":2160,
			"byteOffset":2377196,
			"target":34963
		},
		{
			"buffer":0,
			"byteLength":168,
			"byteOffset":2379356,
			"target":34962
		},
		{
			"buffer":0,
			"byteLength":168,
			"byteOffset":2379524,
			"target":34962
		},
		{
			"buffer":0,
			"byteLength":112,
			"byteOffset":2379692,
			"target":34962
		},
		{
			"buffer":0,
			"byteLength":224,
			"byteOffset":2379804,
			"target":34962
		},
		{
			"buffer":0,
			"byteLength":36,
			"byteOffset":2380028,
			"target":34963
		},
		{
			"buffer":0,
			"byteLength":288,
			"byteOffset":2380064,
			"target":34962
		},
		{
			"buffer":0,
			"byteLength":288,
			"byteOffset":2380352,
			"target":34962
		},
		{
			"buffer":0,
			"byteLength":192,
			"byteOffset":2380640,
			"target":34962
		},
		{
			"buffer":0,
			"byteLength":384,
			"byteOffset":2380832,
			"target":34962
		},
		{
			"buffer":0,
			"byteLength":72,
			"byteOffset":2381216,
			"target":34963
		},
		{
			"buffer":0,
			"byteLength":288,
			"byteOffset":2381288,
			"target":34962
		},
		{
			"buffer":0,
			"byteLength":288,
			"byteOffset":2381576,
			"target":34962
		},
		{
			"buffer":0,
			"byteLength":192,
			"byteOffset":2381864,
			"target":34962
		},
		{
			"buffer":0,
			"byteLength":384,
			"byteOffset":2382056,
			"target":34962
		},
		{
			"buffer":0,
			"byteLength":72,
			"byteOffset":2382440,
			"target":34963
		},
		{
			"buffer":0,
			"byteLength":17784,
			"byteOffset":2382512,
			"target":34962
		},
		{
			"buffer":0,
			"byteLength":17784,
			"byteOffset":2400296,
			"target":34962
		},
		{
			"buffer":0,
			"byteLength":11856,
			"byteOffset":2418080,
			"target":34962
		},
		{
			"buffer":0,
			"byteLength":23712,
			"byteOffset":2429936,
			"target":34962
		},
		{
			"buffer":0,
			"byteLength":5436,
			"byteOffset":2453648,
			"target":34963
		},
		{
			"buffer":0,
			"byteLength":6936,
			"byteOffset":2459084,
			"target":34962
		},
		{
			"buffer":0,
			"byteLength":6936,
			"byteOffset":2466020,
			"target":34962
		},
		{
			"buffer":0,
			"byteLength":4624,
			"byteOffset":2472956,
			"target":34962
		},
		{
			"buffer":0,
			"byteLength":9248,
			"byteOffset":2477580,
			"target":34962
		},
		{
			"buffer":0,
			"byteLength":1776,
			"byteOffset":2486828,
			"target":34963
		},
		{
			"buffer":0,
			"byteLength":1632,
			"byteOffset":2488604,
			"target":34962
		},
		{
			"buffer":0,
			"byteLength":1632,
			"byteOffset":2490236,
			"target":34962
		},
		{
			"buffer":0,
			"byteLength":1088,
			"byteOffset":2491868,
			"target":34962
		},
		{
			"buffer":0,
			"byteLength":2176,
			"byteOffset":2492956,
			"target":34962
		},
		{
			"buffer":0,
			"byteLength":408,
			"byteOffset":2495132,
			"target":34963
		},
		{
			"buffer":0,
			"byteLength":1344,
			"byteOffset":2495540,
			"target":34962
		},
		{
			"buffer":0,
			"byteLength":1344,
			"byteOffset":2496884,
			"target":34962
		},
		{
			"buffer":0,
			"byteLength":896,
			"byteOffset":2498228,
			"target":34962
		},
		{
			"buffer":0,
			"byteLength":1792,
			"byteOffset":2499124,
			"target":34962
		},
		{
			"buffer":0,
			"byteLength":384,
			"byteOffset":2500916,
			"target":34963
		},
		{
			"buffer":0,
			"byteLength":35328,
			"byteOffset":2501300,
			"target":34962
		},
		{
			"buffer":0,
			"byteLength":35328,
			"byteOffset":2536628,
			"target":34962
		},
		{
			"buffer":0,
			"byteLength":23552,
			"byteOffset":2571956,
			"target":34962
		},
		{
			"buffer":0,
			"byteLength":47104,
			"byteOffset":2595508,
			"target":34962
		},
		{
			"buffer":0,
			"byteLength":8736,
			"byteOffset":2642612,
			"target":34963
		},
		{
			"buffer":0,
			"byteLength":48,
			"byteOffset":2651348,
			"target":34962
		},
		{
			"buffer":0,
			"byteLength":48,
			"byteOffset":2651396,
			"target":34962
		},
		{
			"buffer":0,
			"byteLength":32,
			"byteOffset":2651444,
			"target":34962
		},
		{
			"buffer":0,
			"byteLength":64,
			"byteOffset":2651476,
			"target":34962
		},
		{
			"buffer":0,
			"byteLength":12,
			"byteOffset":2651540,
			"target":34963
		},
		{
			"buffer":0,
			"byteLength":288,
			"byteOffset":2651552,
			"target":34962
		},
		{
			"buffer":0,
			"byteLength":288,
			"byteOffset":2651840,
			"target":34962
		},
		{
			"buffer":0,
			"byteLength":108,
			"byteOffset":2652128,
			"target":34963
		},
		{
			"buffer":0,
			"byteLength":96,
			"byteOffset":2652236,
			"target":34962
		},
		{
			"buffer":0,
			"byteLength":96,
			"byteOffset":2652332,
			"target":34962
		},
		{
			"buffer":0,
			"byteLength":36,
			"byteOffset":2652428,
			"target":34963
		},
		{
			"buffer":0,
			"byteLength":96,
			"byteOffset":2652464,
			"target":34962
		},
		{
			"buffer":0,
			"byteLength":96,
			"byteOffset":2652560,
			"target":34962
		},
		{
			"buffer":0,
			"byteLength":96,
			"byteOffset":2652656,
			"target":34962
		},
		{
			"buffer":0,
			"byteLength":96,
			"byteOffset":2652752,
			"target":34962
		},
		{
			"buffer":0,
			"byteLength":16,
			"byteOffset":2652848
		},
		{
			"buffer":0,
			"byteLength":48,
			"byteOffset":2652864
		},
		{
			"buffer":0,
			"byteLength":64,
			"byteOffset":2652912
		}
	],
	"buffers":[
		{
			"byteLength":2652976,
			"uri":"building_05_nopack-ee6fcd256cee98d33aa43ccaed4e71ca.bin"
		}
	]
}
